<?xml version="1.0" encoding="UTF-8"?>
<svg id="Layer_1" data-name="Layer 1" xmlns="http://www.w3.org/2000/svg" viewBox="0 0 512 511.82">
  <path d="m512,62.41c0,34.46-27.95,62.41-62.41,62.41s-62.4-27.95-62.4-62.41c0-34.46,27.94-62.41,62.4-62.41s62.41,27.95,62.41,62.41h0Zm-387.19,0c0,34.46-27.95,62.41-62.41,62.41S0,96.87,0,62.41,27.94,0,62.4,0s62.41,27.95,62.41,62.41h0Zm193.6,0c0,34.46-27.95,62.41-62.41,62.41s-62.41-27.95-62.41-62.41S221.53,0,255.99,0s62.41,27.95,62.41,62.41h0Z" style="fill-rule: evenodd;fill:#fff;"/>
  <path d="m512,256.41c0,34.46-27.95,62.41-62.41,62.41s-62.4-27.95-62.4-62.41c0-34.46,27.94-62.41,62.4-62.41s62.41,27.95,62.41,62.41h0Zm-387.19,0c0,34.46-27.95,62.41-62.41,62.41S0,290.87,0,256.41s27.94-62.41,62.4-62.41,62.41,27.95,62.41,62.41h0Zm193.6,0c0,34.46-27.95,62.41-62.41,62.41s-62.41-27.95-62.41-62.41,27.95-62.41,62.41-62.41,62.41,27.95,62.41,62.41h0Z" style="fill-rule: evenodd;fill:#fff;"/>
  <path d="m512,449.41c0,34.46-27.95,62.41-62.41,62.41s-62.4-27.95-62.4-62.41c0-34.46,27.94-62.41,62.4-62.41s62.41,27.95,62.41,62.41h0Zm-387.19,0c0,34.46-27.95,62.41-62.41,62.41S0,483.87,0,449.41s27.94-62.41,62.4-62.41,62.41,27.95,62.41,62.41h0Zm193.6,0c0,34.46-27.95,62.41-62.41,62.41s-62.41-27.95-62.41-62.41,27.95-62.41,62.41-62.41,62.41,27.95,62.41,62.41h0Z" style="fill-rule: evenodd;fill:#fff;"/>
</svg>